<?xml version="1.0" encoding="utf-8"?>
<svg width="659" height="72" viewBox="0 0 659 72" fill="none" xmlns="http://www.w3.org/2000/svg">
  <path d="M 459.208 0.179 L 485.105 -0.078 L 499.026 39.724 L 499.844 39.724 L 500.589 0.349 L 523.006 -0.686 L 523.735 0.21 L 522.178 1.044 L 521.117 29.633 L 514.197 69.416 L 512.319 69.452 L 493.844 69.452 L 478.299 29.361 L 477.754 29.361 L 477.611 70.02 L 459.208 69.997 L 459.208 0.179 Z M 264.648 70.317 L 244.193 70.317 L 267.239 0.499 L 293.148 0.499 L 316.193 70.317 L 295.739 70.317 L 280.466 19.726 L 279.921 19.726 L 264.648 70.317 Z M 260.83 42.772 L 299.284 42.772 L 299.284 56.953 L 260.83 56.953 L 260.83 42.772 Z M 175.844 71.506 L 175.844 1.688 L 194.799 1.688 L 194.799 29.915 L 205.126 16.599 L 190.324 1.87 L 228.657 1.964 L 215.254 32.779 L 239.39 71.506 L 216.754 71.506 L 201.072 45.324 L 194.799 53.506 L 194.799 71.506 L 175.844 71.506 Z M 344.995 71.095 L 308.231 -0.044 L 380.684 0.178 L 344.735 69.529 L 344.995 71.095 Z M 340.158 44.577 L 341.818 34.559 L 354.625 31.826 L 350.141 37.746 L 340.158 44.577 Z M 393.077 70.461 L 393.077 0.643 L 443.395 0.643 L 443.395 15.916 L 412.032 15.916 L 412.032 27.916 L 440.805 27.916 L 440.805 43.188 L 412.032 43.188 L 412.032 55.188 L 443.259 55.188 L 443.259 70.461 L 393.077 70.461 Z" fill="black"/>
</svg>